<svg width="40" height="38" viewBox="0 0 40 38" fill="none" xmlns="http://www.w3.org/2000/svg">
<g clip-path="url(#clip0_0_2962)">
<path d="M9.68914 7.6525C9.61143 7.56808 9.56734 7.52249 9.52004 7.4769L8.07154 6.02224C8.04789 5.99861 8.02421 5.97581 8.00225 5.95217C7.89835 5.8458 7.89666 5.84502 8.00225 5.73865L9.74111 3.9938L9.78235 3.95299C9.81529 3.91923 9.84833 3.91261 9.88381 3.94722C9.90155 3.96495 9.92136 3.98345 9.93825 4.00287L11.6631 5.73412C11.6872 5.75643 11.7101 5.7805 11.7316 5.80543C11.7373 5.81087 11.7416 5.81713 11.7448 5.82439C11.7479 5.83164 11.7497 5.83958 11.7497 5.84747C11.7497 5.85537 11.7479 5.8633 11.7448 5.87055C11.7416 5.87781 11.7373 5.88407 11.7316 5.88952C11.6944 5.9275 11.659 5.96575 11.621 6.00205L10.1593 7.47155C10.1129 7.51713 10.0688 7.56365 10.0257 7.6084C10.035 7.66158 10.0737 7.64962 10.1024 7.64962C10.96 7.64962 11.8178 7.64962 12.676 7.64962H12.7338C12.7451 7.65152 12.7572 7.65113 12.7684 7.64838C12.7796 7.64563 12.7898 7.64091 12.799 7.63395C12.8081 7.627 12.8156 7.61801 12.8212 7.60798C12.8269 7.59796 12.8307 7.58687 12.8319 7.57542C12.8624 7.45555 12.8914 7.33417 12.9252 7.21598C13.339 5.76088 14.1106 4.43236 15.1705 3.35242C16.2304 2.27248 17.5445 1.47536 18.9922 1.03378C19.5463 0.867212 20.1149 0.754218 20.6906 0.696186C21.2272 0.639137 21.768 0.632942 22.3058 0.677637C23.491 0.766398 24.6469 1.09179 25.7043 1.63436C26.7616 2.17693 27.699 2.92584 28.4619 3.83675C29.4229 4.94929 30.0905 6.28378 30.4045 7.71969C30.4957 8.12767 30.5592 8.54171 30.5934 8.95836C30.6204 9.25889 30.6247 9.55849 30.6247 9.85902C30.6247 10.3824 30.6247 10.9052 30.6247 11.4275C30.6247 11.4806 30.6247 11.533 30.6247 11.5845C30.6237 11.5943 30.6248 11.6041 30.628 11.6134C30.6312 11.6226 30.636 11.6311 30.6429 11.6381C30.6497 11.6451 30.6584 11.6507 30.6676 11.6542C30.6768 11.6576 30.6867 11.6587 30.6965 11.6579L31.104 11.6793C33.0694 11.7705 34.9533 12.4931 36.4748 13.7399C38.1562 15.0796 39.3234 16.958 39.7793 19.0581C39.9782 19.9399 40.043 20.8466 39.9723 21.7478C39.8431 23.6519 39.1284 25.4697 37.9258 26.9522C36.786 28.3919 35.2443 29.4614 33.4961 30.0252C32.8047 30.2526 32.0888 30.3957 31.363 30.4514C31.1155 30.4708 30.8706 30.4811 30.6231 30.4811H27.9909C27.8996 30.4811 27.887 30.4682 27.8828 30.3838C27.8828 30.3382 27.8828 30.2925 27.8828 30.2469V15.7329C27.8828 15.6991 27.8828 15.6669 27.8828 15.6348C27.8828 15.509 27.8889 15.5033 28.0164 15.5033H30.4927C30.519 15.5034 30.5451 15.5053 30.5711 15.5091C30.5842 15.5101 30.5968 15.5163 30.6057 15.526C30.6147 15.5357 30.6198 15.5483 30.6198 15.5614C30.6198 15.6264 30.6198 15.6922 30.6198 15.7564C30.6198 19.0713 30.6198 22.3863 30.6198 25.7012V27.4671C30.6198 27.5 30.6198 27.5323 30.6198 27.5643C30.6198 27.7332 30.6198 27.733 30.7955 27.728C30.9712 27.7229 31.1591 27.7104 31.3399 27.6884C32.1691 27.5946 32.9729 27.3453 33.7098 26.9539C34.5674 26.4959 35.3154 25.8565 35.9007 25.0804C36.4859 24.3044 36.895 23.4106 37.0992 22.4605C37.223 21.9047 37.2715 21.3346 37.2436 20.7659C37.178 19.3246 36.6404 17.9448 35.7143 16.838C34.7745 15.6886 33.4726 14.8912 32.0212 14.5763C31.5834 14.4766 31.1356 14.4267 30.6866 14.4271H29.6918C27.8729 14.4271 26.053 14.4271 24.2319 14.4271C23.9599 14.4271 23.9885 14.4522 23.9885 14.1896C23.9885 13.4062 23.9885 12.6219 23.9885 11.8368C23.9885 11.6679 23.9887 11.6641 24.1576 11.6641H27.6279C27.6862 11.6641 27.7437 11.6641 27.802 11.6641C27.8119 11.6645 27.8225 11.6624 27.8317 11.6587C27.8408 11.655 27.8488 11.6494 27.8556 11.6422C27.8624 11.635 27.8672 11.6265 27.8704 11.6171C27.8736 11.6077 27.8755 11.5977 27.8745 11.5878C27.8745 11.5422 27.8745 11.497 27.8745 11.4514C27.8745 10.8959 27.8745 10.3403 27.8745 9.78482C27.8745 9.54929 27.8644 9.31211 27.8399 9.07996C27.7757 8.39583 27.5942 7.72744 27.3046 7.10427C26.9472 6.30774 26.4271 5.59518 25.7769 5.01235C25.1266 4.42952 24.3609 3.98957 23.5299 3.72092C22.7633 3.46186 21.9516 3.36229 21.1451 3.42867C19.8836 3.51825 18.6802 3.99359 17.6979 4.78976C16.8171 5.48566 16.1401 6.40505 15.7364 7.45217C15.7195 7.49438 15.7012 7.53647 15.6885 7.58037C15.6759 7.62426 15.689 7.65492 15.7405 7.65745C15.792 7.65998 15.8588 7.65745 15.9154 7.65745C17.2618 7.65745 18.6068 7.65745 19.9515 7.65745C20.2049 7.65745 20.1899 7.62369 20.1899 7.90312V10.1983C20.1899 10.4245 20.2026 10.411 19.9796 10.411H9.11914C8.36398 10.4059 7.61376 10.5336 6.90268 10.7877C5.89354 11.1567 4.99468 11.7766 4.29192 12.589C3.58915 13.4014 3.10576 14.3795 2.88631 15.4308C2.80448 15.8146 2.76196 16.2057 2.7601 16.5981C2.7601 17.0202 2.75335 17.435 2.7601 17.8537C2.77893 18.7849 3.0173 19.6982 3.45548 20.5202C3.84517 21.29 4.39043 21.9707 5.05658 22.5194C5.72273 23.068 6.49533 23.4726 7.32584 23.7078C7.35879 23.7179 7.38865 23.729 7.41905 23.7358C7.47649 23.7468 7.49249 23.7841 7.49164 23.8356V23.9324C7.49164 24.7502 7.49164 25.5661 7.49164 26.3805C7.49164 26.5493 7.51032 26.5723 7.31182 26.5318C5.53356 26.1932 3.90113 25.32 2.63307 24.0289C1.38084 22.779 0.528759 21.1854 0.183989 19.4506C0.0612788 18.8551 -0.000228465 18.2486 3.96639e-05 17.6406C3.96639e-05 17.3198 3.96639e-05 16.9993 3.96639e-05 16.6793C-0.00359007 15.4605 0.241938 14.2537 0.722639 13.1336C1.20334 12.0135 1.90869 11.0035 2.79475 10.1661C4.03306 8.9575 5.60058 8.14105 7.3011 7.81862C7.85534 7.70728 8.41935 7.65056 8.98469 7.64962L9.68914 7.6525Z" fill="white"/>
<path d="M15.9044 26.5618H12.6106C12.3716 26.5618 12.3887 26.5836 12.3887 26.3397V24.026C12.3887 23.7845 12.3748 23.81 12.6155 23.81H18.9705C19.2126 23.8151 19.4511 23.7475 19.6543 23.6158C19.8092 23.5228 19.9386 23.3929 20.0313 23.2378C20.1239 23.0828 20.177 22.9071 20.1855 22.7267C20.1982 22.5368 20.1931 22.3478 20.1855 22.1587C20.1855 22.0945 20.1689 22.0793 20.1055 22.0742C20.0422 22.0691 20.0003 22.0742 19.9471 22.0742C19.2393 22.0742 18.5309 22.0742 17.823 22.0742C17.3616 22.0798 16.9012 22.0309 16.4513 21.9283C15.5116 21.6998 14.6524 21.2186 13.9667 20.5371C13.2811 19.8556 12.7948 18.9996 12.5611 18.0618C12.4205 17.5165 12.3729 16.9515 12.4201 16.3903C12.4779 15.5429 12.7421 14.7223 13.1888 13.9996C13.6355 13.2769 14.2514 12.6738 14.9838 12.2428C15.6002 11.8635 16.2924 11.6235 17.0114 11.5396C18.2823 11.3826 19.5665 11.6931 20.6252 12.413C21.6839 13.133 22.4445 14.2131 22.7649 15.4522C22.878 15.8823 22.935 16.3253 22.934 16.77C22.934 18.724 22.934 20.6791 22.934 22.6348C22.9319 23.4196 22.6951 24.1856 22.2543 24.8351C21.8135 25.4846 21.189 25.9877 20.4602 26.2799C19.9959 26.4687 19.4989 26.565 18.9977 26.5635C17.9638 26.5635 16.9308 26.5635 15.8978 26.5635L15.9044 26.5618ZM18.7708 19.3104H19.9801C20.0316 19.3104 20.0828 19.3104 20.1344 19.3104C20.1426 19.3104 20.1507 19.3086 20.1583 19.3054C20.1658 19.3022 20.1732 19.2973 20.1789 19.2914C20.1846 19.2855 20.1884 19.2785 20.1913 19.2708C20.1942 19.2631 20.1958 19.2551 20.1954 19.2469C20.1954 19.2081 20.1954 19.1691 20.1954 19.1294C20.1954 18.3646 20.1954 17.6007 20.1954 16.8368C20.1955 16.6801 20.1831 16.524 20.1583 16.3693C20.1024 16.0313 19.9779 15.708 19.7929 15.4196C19.6078 15.1312 19.3658 14.8836 19.0818 14.6917C18.7978 14.4998 18.4782 14.3675 18.1415 14.3034C17.8047 14.2393 17.4583 14.2445 17.1235 14.3186C16.5683 14.4433 16.0714 14.7521 15.7138 15.1945C15.3562 15.637 15.1589 16.1872 15.1537 16.756C15.145 17.0866 15.2033 17.4151 15.3253 17.7226C15.4472 18.03 15.6301 18.3097 15.8631 18.5445C16.088 18.7852 16.3598 18.9775 16.6616 19.1096C16.9634 19.2417 17.289 19.311 17.6185 19.3128C18.0087 19.3145 18.3874 19.3112 18.7692 19.3112L18.7708 19.3104Z" fill="white"/>
<path d="M26.7767 19.4211C26.7767 20.4738 26.7767 21.5258 26.7767 22.5777C26.7797 23.5666 26.5908 24.5468 26.2207 25.4639C25.7618 26.601 25.0392 27.6132 24.1131 28.4174C23.187 29.2215 22.0834 29.7947 20.8928 30.0901C20.2861 30.2362 19.6649 30.3109 19.0409 30.3122C18.5282 30.3122 18.0136 30.3122 17.5008 30.3122C17.4611 30.3122 17.4217 30.3122 17.3829 30.3122C17.3102 30.3122 17.298 30.2943 17.2938 30.2141C17.2938 30.177 17.2938 30.1372 17.2938 30.0975V27.7644C17.2938 27.5475 17.2752 27.5501 17.5058 27.5501C18.0447 27.5501 18.5845 27.5501 19.1234 27.5501C20.1733 27.5513 21.1946 27.2058 22.0278 26.5674C23.0602 25.8078 23.7546 24.6749 23.963 23.4108C24.0157 23.1013 24.0405 22.7878 24.0372 22.4738C24.0372 20.239 24.0372 18.0037 24.0372 15.7677C24.0372 15.7103 24.0372 15.6504 24.0372 15.5921C24.0372 15.5178 24.0527 15.5077 24.1321 15.5027C24.1709 15.5027 24.2112 15.5027 24.25 15.5027H26.5696C26.6076 15.5027 26.647 15.5027 26.6867 15.5027C26.7569 15.5077 26.7716 15.5227 26.7767 15.5995C26.7767 15.6527 26.7767 15.7051 26.7767 15.7574V19.4211Z" fill="white"/>
<path d="M11.3199 19.1204C11.3199 21.5196 11.3199 23.9184 11.3199 26.3171C11.3199 26.5897 11.3542 26.5611 11.0873 26.5627H8.80653C8.76092 26.5627 8.71521 26.5627 8.6696 26.5627C8.59611 26.5627 8.58546 26.5485 8.58546 26.4683C8.58546 26.4084 8.58546 26.3502 8.58546 26.2919C8.58546 21.5003 8.58546 16.7091 8.58546 11.918C8.58546 11.626 8.55379 11.6645 8.84942 11.6645C9.58148 11.6645 10.3161 11.6645 11.0527 11.6645C11.3661 11.6645 11.3232 11.6248 11.3241 11.9296C11.3241 12.9696 11.3241 14.0091 11.3241 15.0475L11.3199 19.1204Z" fill="white"/>
<path d="M21.6304 37.3861C21.6136 37.3438 21.6092 37.2978 21.6172 37.2529V33.8222C21.6114 33.7987 21.6103 33.7743 21.6139 33.7505C21.6176 33.7266 21.6261 33.7035 21.6387 33.6829C21.6512 33.6622 21.6678 33.6443 21.6873 33.6301C21.7069 33.6159 21.729 33.6057 21.7525 33.6C21.9138 33.5375 22.0688 33.4488 22.2276 33.3745C22.2758 33.3501 22.3035 33.3672 22.3052 33.417C22.3069 33.4668 22.3052 33.5225 22.3052 33.5749V35.0637C22.3052 35.1169 22.3052 35.1693 22.3052 35.2216C22.3052 35.274 22.3302 35.3061 22.3901 35.3061C22.4501 35.3061 22.4937 35.3061 22.5452 35.3061H28.1973C28.4583 35.3061 28.4399 35.3246 28.4399 35.0637C28.4399 34.8029 28.4399 34.5406 28.4399 34.2797C28.4399 34.2342 28.4399 34.1885 28.4399 34.1429C28.4388 34.1261 28.4418 34.1092 28.4498 34.0942C28.4577 34.0793 28.4699 34.0669 28.4844 34.0584C28.6745 33.963 28.8684 33.8693 29.0602 33.7773C29.0679 33.7746 29.076 33.7739 29.0841 33.7752C29.0921 33.7765 29.0999 33.7798 29.1064 33.7847C29.1129 33.7896 29.1186 33.7963 29.122 33.8036C29.1255 33.811 29.1266 33.819 29.1262 33.8271C29.1262 33.8668 29.1262 33.9058 29.1262 33.9454V35.8078C29.1262 36.0154 29.1311 36.0052 28.9183 36.0052H22.5832C22.5308 36.0052 22.478 36.0052 22.4264 36.0052C22.3073 36.0052 22.2978 36.0196 22.2961 36.1445C22.2961 36.3742 22.2961 36.6021 22.2961 36.8309C22.2961 36.8764 22.2961 36.923 22.2961 36.9677C22.2984 37.0038 22.2893 37.0395 22.2697 37.0699C22.2501 37.1003 22.2211 37.1235 22.1872 37.1363C22.009 37.2207 21.8325 37.3051 21.656 37.382C21.6602 37.3938 21.6431 37.3869 21.6304 37.3861Z" fill="white"/>
<path d="M16.8556 37.3837V37.0939C16.8556 36.8913 16.8556 36.6894 16.8556 36.4859C16.8556 36.3838 16.8422 36.3697 16.7442 36.3688C16.5237 36.3688 16.3023 36.3688 16.081 36.3688C15.8928 36.3786 15.7043 36.3522 15.5259 36.2918C15.2637 36.2047 15.0319 36.0459 14.856 35.833C14.6802 35.6201 14.5677 35.3618 14.5319 35.0881C14.4799 34.8062 14.5124 34.515 14.6259 34.2518C14.7394 33.9885 14.9288 33.765 15.1695 33.6091C15.4618 33.3964 15.8246 33.3033 16.1833 33.349C16.4642 33.3767 16.7316 33.4837 16.9537 33.6578C17.1759 33.8318 17.3432 34.0657 17.4371 34.3317C17.4962 34.4846 17.5254 34.6473 17.5221 34.8111C17.5221 35.5231 17.5221 36.2357 17.5221 36.9488C17.5221 36.9809 17.5221 37.0136 17.5221 37.0457C17.5215 37.0623 17.5165 37.0788 17.5072 37.0927C17.498 37.1065 17.4845 37.1175 17.4693 37.1244C17.2826 37.213 17.096 37.3017 16.9051 37.3894C16.8966 37.3928 16.8826 37.3862 16.8556 37.3837ZM16.8556 35.1928V34.8602C16.8561 34.7313 16.8269 34.604 16.7698 34.4884C16.7127 34.3727 16.6291 34.2717 16.5264 34.1937C16.4238 34.1156 16.3042 34.0628 16.1775 34.0387C16.0508 34.0145 15.9206 34.0199 15.7964 34.0547C15.6736 34.0893 15.5603 34.1518 15.4656 34.2373C15.371 34.3229 15.2971 34.429 15.2503 34.5477C15.1929 34.6734 15.173 34.8128 15.1918 34.9496C15.2162 35.1592 15.3176 35.3523 15.4772 35.4904C15.6368 35.6286 15.8427 35.702 16.0538 35.6961H16.3268C16.4561 35.6961 16.5878 35.6961 16.717 35.6961C16.8462 35.6961 16.8539 35.69 16.8556 35.5481C16.8564 35.4291 16.8556 35.311 16.8556 35.1928Z" fill="white"/>
<path d="M9.2597 33.8203V34.0491C9.2597 34.5387 9.2597 35.0285 9.2597 35.5182C9.25345 35.7749 9.32999 36.0269 9.47829 36.2366C9.57912 36.3851 9.71427 36.5066 9.87259 36.5911C10.0309 36.6757 10.2078 36.7205 10.3873 36.7218C10.5374 36.7283 10.6874 36.7042 10.8278 36.6505C10.9681 36.5968 11.0957 36.5145 11.2031 36.4094C11.3122 36.3101 11.3999 36.1897 11.4604 36.0553C11.521 35.9208 11.5532 35.7753 11.5553 35.6278C11.5621 35.2057 11.5553 34.7796 11.5553 34.3541C11.5553 34.1186 11.5245 34.1613 11.75 34.0516C11.8885 33.9832 12.0321 33.9207 12.1723 33.8566C12.1896 33.8512 12.2079 33.8483 12.2259 33.8475C12.2623 33.8745 12.2507 33.9091 12.2507 33.9386C12.2507 34.4949 12.2558 35.0505 12.2507 35.606C12.251 35.9742 12.1347 36.333 11.9191 36.6315C11.6351 37.0341 11.2028 37.3073 10.7172 37.3912C10.3727 37.4458 10.0195 37.4028 9.69853 37.2663C9.37752 37.1299 9.1013 36.9055 8.9017 36.6196C8.69323 36.323 8.58201 35.9693 8.58329 35.6068C8.58329 35.1771 8.58329 34.7447 8.58329 34.3141C8.58329 34.2812 8.58329 34.2485 8.58329 34.2156C8.58152 34.1894 8.58813 34.1632 8.60226 34.141C8.6164 34.1188 8.63794 34.1018 8.66248 34.0924L9.03368 33.9234L9.2597 33.8203Z" fill="white"/>
<path d="M18.995 33.3796C19.0121 33.4292 19.0175 33.4822 19.0098 33.5341V36.9109C19.0082 36.9368 19.0082 36.9629 19.0098 36.9888C19.016 37.0251 19.008 37.0623 18.9884 37.0935C18.9687 37.1247 18.9389 37.1473 18.9034 37.1574C18.7548 37.2215 18.609 37.2967 18.4638 37.366C18.4291 37.3837 18.3955 37.4092 18.3532 37.3923C18.3368 37.3499 18.3325 37.3037 18.34 37.2588C18.34 36.1214 18.34 34.9837 18.34 33.8458C18.34 33.8069 18.34 33.7688 18.34 33.7291C18.3397 33.7158 18.3432 33.7027 18.3499 33.6912C18.3566 33.6797 18.3662 33.6706 18.378 33.6644C18.5699 33.5565 18.7692 33.4623 18.9744 33.3824C18.9744 33.3824 18.9882 33.377 18.995 33.3796Z" fill="white"/>
<path d="M13.6944 34.2204V35.788C13.6944 35.8412 13.6946 35.8927 13.6895 35.9442C13.6898 35.9524 13.6883 35.9605 13.6854 35.9681C13.6825 35.9758 13.6779 35.9828 13.6722 35.9887C13.6665 35.9947 13.6599 35.9995 13.6524 36.0028C13.6448 36.006 13.6367 36.0077 13.6285 36.0077C13.4401 36.0077 13.2526 36.0077 13.0642 36.0077C13.0559 36.0075 13.0478 36.0054 13.0403 36.0019C13.0328 35.9985 13.0261 35.9937 13.0205 35.9875C13.015 35.9813 13.0108 35.9739 13.0081 35.9661C13.0055 35.9582 13.0041 35.95 13.0048 35.9417C13.0048 35.9029 13.0048 35.8631 13.0048 35.8251V32.9051C13.0048 32.8721 13.0048 32.8395 13.0048 32.8065C13.0037 32.787 13.0089 32.7677 13.0189 32.7509C13.0288 32.7341 13.0433 32.7202 13.0609 32.7117L13.6252 32.4483C13.6329 32.446 13.6411 32.4458 13.6491 32.4471C13.6571 32.4484 13.6647 32.4514 13.6713 32.4562C13.678 32.4609 13.6832 32.4672 13.687 32.4743C13.6909 32.4815 13.6933 32.4893 13.6936 32.4974C13.6936 32.5506 13.6936 32.6029 13.6936 32.6553L13.6944 34.2204Z" fill="white"/>
<path d="M20.4377 34.3488C20.4377 34.8452 20.4377 35.3421 20.4377 35.8377C20.4377 36.0065 20.4377 36.0108 20.2645 36.0125C20.1226 36.0125 19.98 36.0125 19.8356 36.0125C19.7722 36.0125 19.7514 35.9916 19.7514 35.9333C19.7514 35.8886 19.7514 35.8412 19.7514 35.7956C19.7514 34.927 19.7514 34.0575 19.7514 33.1897C19.7514 32.9761 19.7326 33.0004 19.9387 32.8991C20.0772 32.8307 20.2183 32.7613 20.361 32.6947C20.4058 32.6735 20.4377 32.6947 20.441 32.7445C20.4444 32.7943 20.441 32.8484 20.441 32.9008L20.4377 34.3488Z" fill="white"/>
<path d="M30.6062 32.6865C30.6266 32.7471 30.6325 32.8116 30.6243 32.8749C30.6243 33.8474 30.6243 34.8202 30.6243 35.7933C30.6243 36.0288 30.6365 36.0126 30.3983 36.0126C30.2801 36.0126 30.1652 36.0126 30.0469 36.0126C29.9751 36.0126 29.9621 35.9942 29.9562 35.9165C29.9562 35.8777 29.9562 35.8387 29.9562 35.7991V33.1737C29.9562 33.1341 29.9562 33.0951 29.9562 33.0563C29.955 33.0336 29.9617 33.0112 29.9743 32.9924C29.987 32.9735 30.0049 32.9592 30.0263 32.9516C30.1952 32.8722 30.3638 32.7878 30.5328 32.7059C30.5564 32.6975 30.5815 32.6911 30.6062 32.6865Z" fill="white"/>
<path d="M19.9491 31.6571C20.2143 31.6571 20.4807 31.647 20.746 31.6571C21.1398 31.6712 21.5162 31.8261 21.8051 32.094C21.8297 32.1159 21.8515 32.1399 21.8719 32.1658C21.8803 32.1757 21.8851 32.1886 21.8851 32.2016C21.8851 32.2146 21.8803 32.2272 21.8719 32.2371C21.8638 32.2467 21.8557 32.2555 21.8463 32.2639C21.7044 32.3694 21.5617 32.4724 21.424 32.5788C21.4075 32.5939 21.3853 32.6016 21.363 32.6006C21.3406 32.5997 21.3195 32.5903 21.3044 32.5738C21.258 32.5378 21.2087 32.5056 21.1567 32.4782C21.0099 32.3946 20.8432 32.3513 20.6742 32.3525C20.1733 32.3567 19.6746 32.3525 19.1729 32.3525C18.9659 32.3525 18.9699 32.3523 18.9716 32.148C18.9716 32.0113 18.9716 31.8747 18.9716 31.7371C18.9716 31.6754 18.9924 31.6526 19.0558 31.6526C19.1014 31.6526 19.1463 31.6526 19.1919 31.6526H19.9524L19.9491 31.6571Z" fill="white"/>
<path d="M15.2825 29.7875C15.2825 29.6499 15.2825 29.5134 15.2825 29.3749C15.2825 29.3108 15.3068 29.281 15.3625 29.2962C15.448 29.3208 15.539 29.3159 15.6215 29.2826C15.6492 29.2721 15.6796 29.2687 15.709 29.2723C15.7384 29.2758 15.7662 29.2865 15.7906 29.3032C15.8153 29.3234 15.8462 29.3341 15.8781 29.3341C15.91 29.3341 15.9409 29.3234 15.9655 29.3032C15.9945 29.2888 16.0264 29.2802 16.0587 29.2785C16.0893 29.2694 16.1215 29.2678 16.1528 29.2739C16.184 29.28 16.2137 29.2936 16.2385 29.3135C16.2634 29.3334 16.2826 29.3594 16.2955 29.3885C16.3083 29.4177 16.3141 29.4495 16.312 29.4813C16.3179 29.7286 16.312 29.9775 16.312 30.2265C16.312 30.2772 16.2808 30.2908 16.2369 30.2933C16.1389 30.2984 16.1198 30.2831 16.1181 30.1911C16.1181 30.1446 16.1181 30.0998 16.1181 30.0542C16.1181 29.8972 16.1181 29.7392 16.1181 29.5831C16.1181 29.4987 16.0832 29.4615 16.0224 29.4606C16.006 29.4597 15.9891 29.4623 15.9738 29.4681C15.9584 29.4739 15.945 29.4829 15.9333 29.4944C15.9217 29.506 15.912 29.52 15.9061 29.5353C15.9002 29.5506 15.8978 29.5667 15.8987 29.5831C15.8987 29.7139 15.8987 29.845 15.8987 29.9759V30.1911C15.8987 30.2231 15.8993 30.2585 15.8748 30.2813C15.8508 30.2905 15.8245 30.2948 15.7989 30.2941C15.7732 30.2934 15.7481 30.2877 15.7246 30.2772C15.6976 30.2603 15.7015 30.2325 15.7015 30.2071C15.7015 30.0383 15.7015 29.8694 15.7015 29.7005C15.7015 29.6474 15.7008 29.595 15.6958 29.5435C15.6945 29.5237 15.6864 29.5051 15.6727 29.4907C15.6589 29.4764 15.6405 29.4673 15.6207 29.4652C15.5949 29.4606 15.5686 29.4648 15.5456 29.4775C15.5227 29.4903 15.505 29.5109 15.4953 29.5353C15.4874 29.5804 15.4832 29.6259 15.4838 29.6717C15.4838 29.8473 15.4838 30.0241 15.4838 30.2005C15.4838 30.2774 15.4664 30.2932 15.3996 30.2966C15.3152 30.2966 15.2916 30.2849 15.2908 30.2014C15.2908 30.0629 15.2908 29.9268 15.2908 29.79L15.2825 29.7875Z" fill="white"/>
<path d="M12.5139 29.6172C12.5139 29.8122 12.5139 30.0091 12.5139 30.2083C12.5139 30.2767 12.4849 30.3076 12.4191 30.2924C12.3449 30.2772 12.2684 30.2803 12.1955 30.301C12.1616 30.3146 12.1245 30.3191 12.0883 30.3142C12.0521 30.3094 12.0176 30.2954 11.9885 30.2734C11.9593 30.2514 11.9362 30.2224 11.9217 30.1889C11.9071 30.1555 11.9022 30.1185 11.906 30.0822C11.8992 29.8931 11.8984 29.7033 11.906 29.5142C11.9136 29.3251 12.0098 29.2609 12.1914 29.2837C12.2091 29.2837 12.2281 29.2948 12.2467 29.299C12.2855 29.3049 12.3118 29.2913 12.3127 29.2508C12.3127 29.1858 12.3125 29.12 12.3176 29.055C12.3227 28.99 12.3365 28.9639 12.4116 28.9639C12.4868 28.9639 12.5106 28.9817 12.5123 29.0484C12.5123 29.1927 12.5123 29.336 12.5123 29.4795V29.618L12.5139 29.6172ZM12.1007 29.7912C12.1007 29.8756 12.1007 29.9598 12.1007 30.0442C12.1027 30.0636 12.1115 30.0817 12.1254 30.0954C12.1393 30.1091 12.1571 30.1178 12.1765 30.1197C12.2357 30.1264 12.3059 30.0892 12.311 30.0352C12.3258 29.8737 12.3258 29.7111 12.311 29.5496C12.3034 29.5217 12.2859 29.4976 12.2615 29.482C12.2372 29.4664 12.2076 29.4603 12.179 29.4651C12.1557 29.4674 12.1344 29.4785 12.1188 29.496C12.1032 29.5135 12.0946 29.5364 12.0949 29.5599C12.0983 29.635 12.1007 29.7126 12.1007 29.7912Z" fill="white"/>
<path d="M26.7909 36.9405C26.6447 37.0992 26.4965 37.2409 26.3512 37.3878C26.3463 37.394 26.3402 37.3993 26.3331 37.403C26.326 37.4067 26.318 37.4091 26.31 37.4096C26.302 37.4101 26.2944 37.4087 26.2869 37.4059C26.2794 37.4031 26.2719 37.3988 26.2663 37.3931C26.1176 37.2479 25.9719 37.101 25.8266 36.9533C25.8206 36.948 25.8158 36.9412 25.8126 36.9339C25.8093 36.9266 25.8076 36.9188 25.8076 36.9108C25.8076 36.9029 25.8093 36.895 25.8126 36.8878C25.8158 36.8805 25.8206 36.8741 25.8266 36.8688C25.9575 36.7363 26.0907 36.6027 26.2242 36.4702C26.2306 36.4627 26.2391 36.457 26.2481 36.4529C26.2571 36.4488 26.2663 36.4463 26.2762 36.4463C26.286 36.4463 26.2961 36.4488 26.305 36.4529C26.314 36.457 26.3217 36.4627 26.3281 36.4702C26.481 36.6179 26.6405 36.7675 26.7909 36.9405Z" fill="white"/>
<path d="M9.18573 28.069V28.2842C9.18573 28.3441 9.18566 28.4007 9.25915 28.426C9.29462 28.4378 9.29318 28.4759 9.28389 28.5105C9.28061 28.5231 9.27388 28.5345 9.2641 28.5431C9.25431 28.5516 9.24237 28.5567 9.22945 28.5583C9.20099 28.567 9.17051 28.5691 9.14119 28.5641C9.11187 28.5591 9.08435 28.5474 9.06035 28.5299C9.0453 28.5177 9.02693 28.5109 9.00756 28.5109C8.98818 28.5109 8.96899 28.5177 8.95394 28.5299C8.89114 28.5662 8.81702 28.578 8.74607 28.5629C8.70249 28.5605 8.66179 28.5418 8.63141 28.5105C8.60103 28.4792 8.58292 28.4375 8.58192 28.3939C8.55573 28.0959 8.58232 28.0268 8.8467 27.966C8.86564 27.9609 8.8846 27.9547 8.9028 27.9474C8.92072 27.9413 8.93706 27.931 8.95064 27.9178C8.96422 27.9045 8.97454 27.8885 8.98116 27.8708C8.98778 27.853 8.99018 27.834 8.98858 27.8151C8.98698 27.7962 8.98078 27.7779 8.97126 27.7615C8.96063 27.745 8.94614 27.732 8.92837 27.7236C8.91059 27.7153 8.89096 27.7118 8.87145 27.7141C8.85488 27.713 8.83764 27.7166 8.82278 27.724C8.80793 27.7314 8.79551 27.7426 8.78649 27.7566C8.77627 27.7802 8.77018 27.8052 8.76752 27.8308C8.74809 27.9152 8.72135 27.9313 8.64956 27.9153C8.63666 27.9139 8.6246 27.9082 8.61491 27.8996C8.60523 27.891 8.59884 27.8797 8.59594 27.8671C8.58349 27.8281 8.58067 27.787 8.58769 27.7467C8.59471 27.7064 8.61146 27.6682 8.63636 27.6358C8.66126 27.6034 8.69329 27.5776 8.7304 27.5604C8.7675 27.5432 8.80832 27.5349 8.84918 27.5369C8.8818 27.5346 8.91472 27.5346 8.94734 27.5369C8.97856 27.535 9.00971 27.5401 9.0389 27.5513C9.0681 27.5625 9.09456 27.5797 9.11644 27.602C9.13832 27.6244 9.15534 27.6513 9.16593 27.6807C9.17653 27.7102 9.18009 27.7415 9.17748 27.7727C9.18424 27.8697 9.17748 27.9674 9.17748 28.0662L9.18573 28.069ZM8.98364 28.2092C8.98364 28.1163 8.98348 28.096 8.95476 28.0892C8.91993 28.0844 8.88468 28.0912 8.85413 28.1086C8.82358 28.126 8.79929 28.1529 8.78566 28.1853C8.77674 28.2229 8.77383 28.2618 8.77659 28.3003C8.77725 28.3261 8.78844 28.3504 8.80711 28.3683C8.82578 28.3862 8.85056 28.396 8.8764 28.3955C8.90221 28.3957 8.92672 28.3869 8.94652 28.3704C8.96631 28.3538 8.98006 28.3306 8.98446 28.3052C8.98634 28.2723 8.98608 28.2392 8.98364 28.2063V28.2092Z" fill="white"/>
<path d="M10.399 34.1658C10.5604 34.327 10.7066 34.4731 10.8519 34.6217C10.9043 34.6757 10.9058 34.7058 10.8585 34.7556C10.7234 34.8949 10.5869 35.032 10.4568 35.1637C10.4197 35.1574 10.386 35.1372 10.3627 35.1077C10.2394 34.9844 10.1149 34.8604 9.99233 34.7346C9.9332 34.673 9.93167 34.642 9.98573 34.5846C10.1159 34.4495 10.2487 34.3177 10.399 34.1658Z" fill="white"/>
<path d="M11.4873 28.2799C11.4873 28.2479 11.4871 28.2148 11.4931 28.1818C11.4948 28.1426 11.5081 28.1048 11.5318 28.0734C11.5555 28.0421 11.5886 28.0187 11.6259 28.0062C11.6994 27.9792 11.7734 27.9582 11.8469 27.932C11.8993 27.9126 11.9165 27.873 11.9038 27.8047C11.9018 27.7822 11.8919 27.7607 11.8766 27.7441C11.8614 27.7274 11.8411 27.7163 11.8189 27.7123C11.7936 27.7061 11.7673 27.7092 11.7438 27.7206C11.7204 27.732 11.7017 27.7512 11.691 27.775C11.6851 27.7936 11.6854 27.8137 11.6795 27.8331C11.6634 27.9049 11.6257 27.9304 11.5615 27.9102C11.5524 27.9079 11.5439 27.9034 11.5368 27.8974C11.5296 27.8914 11.5241 27.8841 11.5203 27.8756C11.5066 27.8318 11.5039 27.7855 11.512 27.7404C11.5201 27.6952 11.5385 27.6526 11.5665 27.6163C11.5915 27.5868 11.6241 27.5643 11.6605 27.5512C11.7539 27.5233 11.8533 27.5233 11.9467 27.5512C11.9819 27.5604 12.0137 27.5796 12.0383 27.6064C12.0629 27.6332 12.0792 27.6666 12.0853 27.7024C12.0961 27.7529 12.1011 27.8046 12.101 27.8562C12.101 28.0065 12.101 28.1548 12.101 28.3051C12.101 28.3625 12.1144 28.4065 12.1761 28.4226C12.2048 28.4318 12.21 28.4586 12.2058 28.4864C12.2051 28.5027 12.1994 28.5185 12.1884 28.5306C12.1775 28.5426 12.1625 28.5502 12.1464 28.5524C12.118 28.5613 12.0874 28.5637 12.0581 28.559C12.0288 28.5543 12.0014 28.5429 11.9773 28.5256C11.9642 28.512 11.9466 28.5037 11.9278 28.5029C11.9089 28.5021 11.89 28.5086 11.8758 28.5211C11.8246 28.5505 11.7655 28.5634 11.7067 28.5582C11.6789 28.5609 11.6515 28.558 11.625 28.5491C11.5986 28.5402 11.5738 28.526 11.5533 28.5071C11.5328 28.4882 11.5164 28.4651 11.5054 28.4395C11.4945 28.4138 11.4893 28.3861 11.4898 28.3582C11.4877 28.3321 11.4877 28.3061 11.4898 28.2799H11.4873ZM11.8915 28.0891C11.7276 28.0992 11.6684 28.1556 11.6828 28.289C11.6836 28.3148 11.6933 28.3393 11.7108 28.3582C11.7284 28.3772 11.752 28.3892 11.7776 28.3921C11.8064 28.3939 11.8347 28.3855 11.8577 28.3681C11.8806 28.3508 11.897 28.3258 11.903 28.2977C11.914 28.2282 11.9083 28.157 11.8874 28.0899L11.8915 28.0891Z" fill="white"/>
<path d="M11.5716 29.8031C11.5716 29.9458 11.5716 30.0899 11.5716 30.2335C11.5716 30.2731 11.5461 30.2911 11.5081 30.2928C11.4827 30.2969 11.456 30.2949 11.4313 30.2875C11.4121 30.2763 11.3909 30.2706 11.3686 30.2706C11.3464 30.2706 11.3244 30.2763 11.3051 30.2875C11.2755 30.3001 11.2439 30.3086 11.2119 30.3122C11.183 30.3196 11.1528 30.32 11.1237 30.3134C11.0945 30.3069 11.0674 30.2937 11.0445 30.2747C11.0215 30.2557 11.0035 30.2311 10.9917 30.2038C10.9798 30.1764 10.975 30.147 10.9768 30.1172C10.9692 29.864 10.9768 29.6105 10.9768 29.353C10.9768 29.3116 11.0057 29.3007 11.0412 29.2965C11.1434 29.2881 11.1641 29.3059 11.1649 29.4148C11.1649 29.441 11.1649 29.467 11.1649 29.4931V29.9247C11.1649 29.9644 11.1649 30.003 11.1649 30.0418C11.1657 30.0614 11.1732 30.0803 11.1863 30.095C11.1995 30.1096 11.2172 30.1192 11.2367 30.1222C11.2621 30.1276 11.2889 30.1236 11.3117 30.111C11.3345 30.0985 11.3514 30.0782 11.3604 30.0537C11.3683 30.0089 11.3723 29.9632 11.3711 29.9177C11.3711 29.7337 11.3711 29.5514 11.3711 29.3691C11.3711 29.3184 11.3998 29.3007 11.4445 29.2982H11.4833C11.5543 29.2982 11.5674 29.3149 11.5674 29.3942C11.5674 29.531 11.5674 29.6688 11.5674 29.8072L11.5716 29.8031Z" fill="white"/>
<path d="M12.5342 28.0437C12.5342 27.9002 12.5342 27.7569 12.5342 27.6125C12.5342 27.5678 12.5695 27.528 12.6092 27.5466C12.7028 27.5653 12.7995 27.5613 12.8913 27.5354C13.0603 27.5169 13.1378 27.5855 13.1446 27.7543C13.1522 27.989 13.1446 28.2236 13.1446 28.4592C13.1446 28.5335 13.1257 28.5436 13.0497 28.5478C12.9737 28.552 12.9499 28.5367 12.9491 28.4456C12.9491 28.2894 12.9491 28.1323 12.9491 27.9752C12.9491 27.917 12.9492 27.8587 12.9433 27.7996C12.942 27.7762 12.9318 27.7544 12.9144 27.7386C12.897 27.7228 12.8744 27.7146 12.8509 27.7156C12.8243 27.7126 12.7968 27.7194 12.775 27.7349C12.7532 27.7505 12.738 27.7735 12.7321 27.7996C12.7266 27.845 12.7245 27.8908 12.7255 27.9365C12.7255 28.1121 12.7255 28.2893 12.7255 28.4649C12.7255 28.497 12.7257 28.5336 12.6826 28.542C12.6396 28.5505 12.5911 28.5631 12.5548 28.5259C12.5404 28.5053 12.5342 28.4801 12.5366 28.455C12.5366 28.3174 12.5366 28.1804 12.5366 28.0428L12.5342 28.0437Z" fill="white"/>
<path d="M13.6086 29.7988C13.6086 29.8706 13.6086 29.9422 13.6086 30.014C13.609 30.0403 13.6193 30.0654 13.6375 30.0845C13.6556 30.1036 13.6805 30.1153 13.7068 30.117C13.7642 30.1213 13.8088 30.0808 13.8214 30.0099C13.8214 29.9913 13.8213 29.9708 13.8264 29.9513C13.8365 29.8669 13.874 29.8425 13.9551 29.8619C13.9677 29.8645 13.9791 29.8711 13.9881 29.8804C13.997 29.8898 14.0026 29.9015 14.0046 29.9142C14.0178 29.9847 14.0143 30.0574 13.9938 30.1261C13.9819 30.1667 13.9598 30.2037 13.9295 30.2333C13.8992 30.2629 13.8615 30.2842 13.8206 30.2951C13.7455 30.317 13.6659 30.3147 13.5921 30.2889C13.5438 30.277 13.5006 30.25 13.4692 30.2114C13.4378 30.1729 13.4199 30.1251 13.4181 30.0754C13.4107 29.8863 13.4107 29.6971 13.4181 29.5074C13.419 29.4544 13.4382 29.4036 13.4733 29.364C13.5085 29.3243 13.5569 29.2986 13.6094 29.2914C13.6534 29.2791 13.6991 29.2739 13.7447 29.2762C13.7874 29.2748 13.83 29.2839 13.8684 29.3025C13.9069 29.3212 13.9404 29.349 13.9658 29.3833C13.9912 29.4177 14.0079 29.4573 14.0144 29.4996C14.021 29.5418 14.0167 29.5853 14.0029 29.6257C13.9928 29.6645 13.9616 29.673 13.9278 29.6756C13.894 29.6781 13.8431 29.6754 13.833 29.6306C13.8228 29.6003 13.8266 29.5658 13.8181 29.5346C13.8122 29.5124 13.7991 29.4929 13.7802 29.4798C13.7613 29.4666 13.7379 29.4603 13.715 29.4625C13.6915 29.4625 13.6691 29.4712 13.6515 29.4868C13.6339 29.5023 13.6222 29.5237 13.6193 29.547C13.6083 29.6314 13.6062 29.7161 13.602 29.8005L13.6086 29.7988Z" fill="white"/>
<path d="M8.57733 29.7971C8.57733 29.7127 8.57733 29.628 8.57733 29.5436C8.5748 29.4771 8.59843 29.4122 8.64332 29.3631C8.68821 29.3139 8.7509 29.2845 8.81737 29.281C8.83002 29.28 8.84267 29.28 8.85532 29.281C9.04791 29.276 9.18052 29.3511 9.17207 29.5799C9.17207 29.6643 9.12943 29.6982 9.04834 29.6813C9.0354 29.6801 9.02318 29.6745 9.0137 29.6656C9.00421 29.6567 8.99757 29.6451 8.99555 29.6322C8.99253 29.5995 8.98727 29.5672 8.97905 29.5354C8.97459 29.5165 8.96391 29.4994 8.94853 29.4875C8.93315 29.4757 8.9135 29.4697 8.89409 29.4702C8.87135 29.468 8.84904 29.4732 8.82975 29.4855C8.81045 29.4977 8.79531 29.5163 8.78768 29.5378C8.78094 29.5557 8.77697 29.5744 8.7753 29.5935C8.7753 29.7311 8.7753 29.8685 8.7753 30.0061C8.77582 30.0253 8.77982 30.0446 8.78768 30.0622C8.79556 30.0801 8.80849 30.0953 8.8248 30.1063C8.84111 30.1172 8.86044 30.1231 8.88006 30.1236C8.89981 30.1248 8.91936 30.12 8.93616 30.1096C8.95295 30.0991 8.96644 30.0837 8.9741 30.0655C8.98532 30.0281 8.99139 29.9894 8.99307 29.9505C9.00237 29.8719 9.02753 29.8533 9.10608 29.8659C9.12255 29.8665 9.13852 29.8729 9.15063 29.8841C9.16273 29.8953 9.17025 29.9106 9.17207 29.927C9.17583 29.9524 9.1774 29.9779 9.17702 30.0036C9.18406 30.0558 9.17673 30.1091 9.15475 30.157C9.13277 30.2048 9.09747 30.2454 9.05329 30.274C9.00026 30.3064 8.93891 30.3235 8.87677 30.3235C8.81462 30.3235 8.7541 30.3064 8.70106 30.274C8.66588 30.2554 8.63621 30.2275 8.61528 30.1936C8.59434 30.1598 8.58239 30.1213 8.58146 30.0815C8.58146 29.992 8.58146 29.899 8.58146 29.807L8.57733 29.7971Z" fill="white"/>
<path d="M10.6407 29.7918C10.6407 29.8762 10.6458 29.9609 10.6407 30.0453C10.6409 30.0979 10.6248 30.1491 10.5945 30.1921C10.5643 30.235 10.522 30.2673 10.4724 30.2848C10.4158 30.3091 10.3537 30.3176 10.2926 30.3091C10.2316 30.3007 10.1738 30.2758 10.126 30.237C10.0984 30.2142 10.0763 30.1852 10.0616 30.1525C10.047 30.1199 10.0397 30.0844 10.041 30.0486C10.036 29.8798 10.0326 29.7109 10.041 29.542C10.041 29.5059 10.049 29.4702 10.0633 29.4369C10.0776 29.4037 10.0981 29.3736 10.1243 29.3487C10.1506 29.3238 10.1819 29.3047 10.2159 29.2922C10.2499 29.2798 10.2854 29.2742 10.3215 29.2762C10.3586 29.2703 10.3965 29.2719 10.4328 29.2811C10.4692 29.2904 10.5037 29.3069 10.5335 29.3297C10.5633 29.3526 10.5877 29.3811 10.6061 29.4138C10.6244 29.4465 10.6359 29.4829 10.6399 29.5202C10.6457 29.6104 10.6457 29.7008 10.6399 29.791L10.6407 29.7918ZM10.2307 29.7828C10.2307 29.8672 10.2307 29.9514 10.2307 30.0359C10.2322 30.0486 10.236 30.0609 10.2423 30.0721C10.2486 30.0833 10.2569 30.0931 10.267 30.101C10.2772 30.1088 10.2893 30.1146 10.3017 30.1179C10.3141 30.1212 10.3269 30.1221 10.3396 30.1204C10.3545 30.1209 10.3696 30.1181 10.3834 30.1125C10.3972 30.1069 10.4094 30.0986 10.4196 30.0878C10.4299 30.077 10.4378 30.0643 10.4427 30.0503C10.4477 30.0362 10.4497 30.021 10.4485 30.0062C10.4536 29.8643 10.4485 29.721 10.4485 29.5775V29.5581C10.4449 29.5288 10.4303 29.502 10.4073 29.4835C10.3842 29.465 10.3542 29.4563 10.3248 29.4592C10.2986 29.4617 10.2745 29.4745 10.2571 29.4942C10.2397 29.514 10.2308 29.5392 10.2316 29.5655C10.2248 29.6398 10.2299 29.711 10.2299 29.7836L10.2307 29.7828Z" fill="white"/>
<path d="M14.9487 29.7925C14.9487 29.8769 14.9538 29.9616 14.9487 30.046C14.9486 30.0819 14.9414 30.1173 14.9273 30.1503C14.9131 30.1833 14.8922 30.2133 14.8662 30.2381C14.8403 30.2629 14.8099 30.2823 14.7763 30.295C14.7427 30.3077 14.7066 30.3134 14.6707 30.3119C14.6338 30.3182 14.5958 30.3168 14.5594 30.3078C14.523 30.2987 14.4884 30.2821 14.4587 30.2591C14.4291 30.2362 14.4049 30.2076 14.387 30.1746C14.369 30.1417 14.358 30.1052 14.3548 30.0679C14.3342 29.8867 14.3342 29.7037 14.3548 29.5225C14.3571 29.4868 14.3667 29.4519 14.3829 29.4199C14.399 29.3879 14.4215 29.3597 14.4489 29.3366C14.4762 29.3135 14.5078 29.2961 14.5421 29.2855C14.5763 29.275 14.612 29.2715 14.6476 29.2752C14.685 29.2712 14.7231 29.275 14.759 29.2863C14.7949 29.2977 14.828 29.3164 14.8563 29.3412C14.8847 29.3659 14.9071 29.3962 14.9232 29.4302C14.9392 29.4642 14.9485 29.501 14.9496 29.5386C14.9572 29.623 14.9496 29.7073 14.9496 29.7917L14.9487 29.7925ZM14.7549 29.7925C14.7549 29.7157 14.7549 29.6365 14.7549 29.5596C14.7547 29.5465 14.7519 29.5337 14.7466 29.5217C14.7414 29.5097 14.7339 29.4986 14.7244 29.4896C14.7148 29.4805 14.7036 29.4736 14.6914 29.4689C14.6791 29.4643 14.6657 29.4623 14.6526 29.4628C14.6397 29.4614 14.6271 29.4623 14.6147 29.4661C14.6022 29.4698 14.5908 29.4759 14.5808 29.4842C14.5708 29.4925 14.5621 29.5028 14.5561 29.5143C14.5501 29.5258 14.5464 29.5385 14.5454 29.5514C14.5276 29.7133 14.5276 29.8763 14.5454 30.0382C14.5471 30.0511 14.552 30.0637 14.5586 30.0749C14.5651 30.0861 14.5738 30.0959 14.5841 30.1037C14.5945 30.1116 14.6062 30.1174 14.6188 30.1206C14.6313 30.1239 14.6439 30.1245 14.6567 30.1227C14.6829 30.1232 14.7087 30.1135 14.7277 30.0955C14.7466 30.0775 14.7573 30.0528 14.7582 30.0267C14.7582 29.9456 14.7549 29.8702 14.7549 29.7909V29.7925Z" fill="white"/>
<path d="M10.8189 28.1329C10.8638 28.0906 10.8904 28.0326 10.8931 27.9709C10.9168 27.8494 10.9412 27.7277 10.9666 27.607C10.9731 27.5927 10.9828 27.5802 10.9946 27.5699C11.0064 27.5595 11.0201 27.5519 11.035 27.5472C11.05 27.5425 11.0656 27.5409 11.0812 27.5427C11.0968 27.5444 11.1114 27.5492 11.1249 27.5571C11.1486 27.5765 11.1424 27.6027 11.1373 27.628C11.0878 27.8638 11.037 28.0994 10.9864 28.3341C10.9796 28.3721 10.9708 28.4107 10.9641 28.4487C10.9413 28.5432 10.9293 28.5509 10.8304 28.5509C10.7316 28.5509 10.7236 28.5415 10.7067 28.4664C10.6484 28.1921 10.5933 27.9176 10.5384 27.6441C10.5207 27.5597 10.538 27.5413 10.6284 27.548C10.6917 27.548 10.7131 27.564 10.7232 27.623C10.7562 27.7851 10.7834 27.9514 10.8189 28.1329Z" fill="white"/>
<path d="M9.6189 28.0496C9.6189 27.9069 9.6189 27.7636 9.6189 27.6201C9.6189 27.5627 9.64972 27.5357 9.70716 27.5459C9.73249 27.5458 9.75722 27.5534 9.7781 27.5677C9.80766 27.5964 9.83434 27.587 9.86306 27.5735C10.0793 27.4891 10.1848 27.5619 10.1831 27.794C10.1831 27.8126 10.1831 27.8336 10.1831 27.8521C10.1796 27.8675 10.1725 27.882 10.1625 27.8942C10.1525 27.9064 10.1398 27.9162 10.1254 27.9226C10.111 27.9291 10.0949 27.9319 10.0792 27.9313C10.0634 27.9307 10.0485 27.9265 10.0346 27.9189C10.0289 27.9158 10.0237 27.9114 10.0198 27.9061C10.0158 27.9009 10.0129 27.8948 10.0115 27.8884C10.0115 27.8631 10.0115 27.8362 10.0115 27.8117C10.0115 27.7704 9.99446 27.7323 9.94885 27.7272C9.92307 27.7226 9.8967 27.728 9.87461 27.7421C9.85253 27.7562 9.83668 27.7777 9.83007 27.8031C9.82058 27.8409 9.81553 27.8799 9.81605 27.9189V28.3901C9.81704 28.429 9.81494 28.4677 9.80945 28.5063C9.80681 28.515 9.80222 28.5234 9.79625 28.5302C9.79028 28.537 9.78305 28.5425 9.7748 28.5463C9.67766 28.5784 9.62141 28.5412 9.61972 28.4432C9.61972 28.3124 9.61972 28.1813 9.61972 28.0504L9.6189 28.0496Z" fill="white"/>
<path d="M9.50825 29.6179C9.50825 29.4296 9.50825 29.2414 9.50825 29.0532C9.50825 29.0211 9.50816 28.9847 9.54702 28.9687C9.56843 28.9611 9.5912 28.9581 9.61384 28.9596C9.63647 28.961 9.65873 28.9671 9.679 28.9773C9.68903 28.9848 9.69654 28.9953 9.69962 29.0074C9.70345 29.02 9.70504 29.0334 9.70457 29.0466C9.70457 29.4354 9.70457 29.825 9.70457 30.2156C9.70645 30.2283 9.70485 30.2413 9.69962 30.2531C9.69439 30.2649 9.6856 30.2751 9.67488 30.2823C9.65067 30.2906 9.62534 30.294 9.59981 30.2922C9.57429 30.2905 9.54926 30.2835 9.5264 30.272C9.5183 30.2621 9.51242 30.2506 9.50907 30.2382C9.50573 30.2259 9.50461 30.213 9.5066 30.2003L9.50825 29.6179Z" fill="white"/>
<path d="M13.0769 30.1708V30.229C13.0778 30.2371 13.0771 30.2452 13.0744 30.2529C13.0718 30.2606 13.0677 30.2676 13.0621 30.2735C13.0564 30.2794 13.0499 30.2841 13.0423 30.2871C13.0347 30.29 13.0265 30.2913 13.0183 30.2908C12.9786 30.2908 12.9401 30.2908 12.9012 30.2908C12.8931 30.2911 12.8856 30.2894 12.8781 30.2863C12.8707 30.2832 12.8638 30.2786 12.8583 30.2727C12.8529 30.2667 12.8484 30.2597 12.8459 30.2521C12.8435 30.2444 12.8433 30.2362 12.8443 30.2281V30.2079C12.8384 30.0636 12.8534 30.0491 12.9928 30.055C13.0587 30.055 13.0769 30.0721 13.0769 30.1329C13.0777 30.1459 13.0777 30.1587 13.0769 30.1717V30.1708Z" fill="white"/>
</g>
<defs>
<clipPath id="clip0_0_2962">
<rect width="40" height="38" fill="white"/>
</clipPath>
</defs>
</svg>
